<svg xmlns="http://www.w3.org/2000/svg" width="24" height="24" viewBox="0 0 24 24" fill="none" stroke="#354bd9" stroke-width="2" stroke-linecap="round" stroke-linejoin="round">
<!--Shopping Cart Icon-->
  <circle cx="8" cy="21" r="1"/>
  <circle cx="19" cy="21" r="1"/>
  <path d="M2.05 2.05h2l2.66 12.42a2 2 0 0 0 2 1.58h9.78a2 2 0 0 0 1.95-1.57l1.65-7.43H5.12"/>
<!--Mirrored, smaller, and moved Tag Icon-->
  <g transform="scale(0.5) translate(34, 16) scale(-0.6, 0.6)">
    <path d="M12.586 2.586A2 2 0 0 0 11.172 2H4a2 2 0 0 0-2 2v7.172a2 2 0 0 0 .586 1.414l8.704 8.704a2.426 2.426 0 0 0 3.42 0l6.58-6.58a2.426 2.426 0 0 0 0-3.42z"/>
    <circle cx="7.5" cy="7.5" r=".7" fill="currentColor"/>
  </g>
</svg>
